<?xml version="1.0" encoding="utf-8"?>
<!-- Generator: Adobe Illustrator 25.0.0, SVG Export Plug-In . SVG Version: 6.00 Build 0)  -->
<svg version="1.1" xmlns="http://www.w3.org/2000/svg" xmlns:xlink="http://www.w3.org/1999/xlink" x="0px" y="0px"
	 viewBox="0 0 4000 3000" style="enable-background:new 0 0 4000 3000;" xml:space="preserve">
<style type="text/css">
	.st0{fill-rule:evenodd;clip-rule:evenodd;fill:#141414;}
</style>
<g id="Layer_1">
</g>
<g id="icons">
	<path class="st0" d="M1997.47,418.69C1374.1,418.75,868.8,924.15,868.85,1547.52c0.05,485.87,311.01,917.19,771.98,1070.76
		c56.43,10.43,76.83-24.66,76.83-54.07c0-29.4,0-116.19,0-210.09c-313.96,67.82-379.4-133.26-379.4-133.26
		c-51.22-130.42-125.2-165.51-125.2-165.51c-102.44-69.72,7.59-68.29,7.59-68.29c72.55,9.93,136.43,52.81,173.1,116.19
		c100.54,172.63,264.16,122.83,328.66,94.85c4.8-57.29,30.25-110.89,71.61-150.81c-250.88-28.46-514.56-125.68-514.56-558.19
		c-1.57-112.13,40.23-220.53,116.67-302.57c-34.8-97.31-30.89-204.27,10.9-298.78c0,0,94.85-30.35,310.17,115.72
		c185.04-50.59,380.27-50.59,565.31,0c215.79-146.07,310.17-115.72,310.17-115.72c41.8,94.51,45.7,201.47,10.91,298.78
		c76.31,82.09,117.94,190.5,116.19,302.57c0,433.94-263.69,529.26-515.04,557.24c54.32,55.51,82.13,131.7,76.35,209.15
		c0,150.81,0,272.22,0,309.69c0,29.88,20.4,64.97,77.78,54.07c591.42-197.02,911.15-836.18,714.12-1427.6
		c-153.68-461.3-585.49-772.34-1071.71-771.98L1997.47,418.69z"/>
</g>
</svg>
