<svg xmlns="http://www.w3.org/2000/svg" viewBox="0 0 2076.82392 2071.59215"><defs><style>.cls-1{fill:#141414;}</style></defs><g id="icons"><path class="cls-1" d="M912.45908,1031.31716h430.3646V2415.28505H912.45908ZM1127.85994,343.6929c143.60379,0,258.85982,121.36343,248.7965,267.11707-8.49122,122.98381-108.12989,222.61672-231.11469,231.09349C999.79945,851.94881,878.448,736.6988,878.448,593.10415v-.00369c0-137.74408,111.66362-249.40756,249.412-249.40756" transform="translate(-878.44796 -343.6929)"/><path class="cls-1" d="M1612.727,1031.31716h412.0519v189.23828h7.84781A451.73438,451.73438,0,0,1,2439.44548,997.306c436.03279,0,515.8264,286.47434,515.8264,658.84475v759.13427H2525.3445v-672.798c0-160.461-2.61249-367.13952-223.24719-367.13952-220.63174,0-258.12914,174.412-258.12914,355.36521v684.57229H1614.476Z" transform="translate(-878.44796 -343.6929)"/></g></svg>