<svg xmlns="http://www.w3.org/2000/svg" viewBox="0 0 882.0909 621.3636"><defs><style>.cls-1{fill:#231f20;}</style></defs><g id="Layer_5" data-name="Layer 5"><path class="cls-1" d="M951.53338,295.8182H248.01209c-49.23209,0-89.28479,42.3727-89.28479,94.4564V822.7254c0,52.0837,40.0527,94.4564,89.28479,94.4564H951.53338c49.231,0,89.28482-42.3727,89.28482-94.4564V390.2746C1040.8182,338.1909,1000.7644,295.8182,951.53338,295.8182ZM248.01209,341.3393H951.53338a45.1366,45.1366,0,0,1,35.0044,17.0393L663.09948,587.5903l-1.0358.7824c-45.5186,36.5614-106.56989-1.0203-107.25059-1.447L206.69589,368.397C214.30559,352.3808,229.94479,341.3393,248.01209,341.3393ZM951.53338,871.6607H248.01209c-25.5053,0-46.256-21.9526-46.256-48.9353V418.2284l330.9711,207.7637c2.2859,1.4592,38.5662,24.1131,82.68339,24.1131,23.149,0,48.4578-6.237,72.13842-25.0511L997.78937,405.1952V822.7254C997.78937,849.7081,977.03968,871.6607,951.53338,871.6607Z" transform="translate(-158.7273 -295.8182)"/></g></svg>