<svg width="133" height="85" viewBox="0 0 133 85" fill="none" xmlns="http://www.w3.org/2000/svg">
<g id="triangles" clip-path="url(#clip0_2_2)">
<g id="light-group">
<path id="light1" opacity="0.7" d="M52 40.7679C53.3333 41.5377 53.3333 43.4623 52 44.2321L13.75 66.3157C12.4167 67.0855 10.75 66.1232 10.75 64.5836L10.75 20.4164C10.75 18.8768 12.4167 17.9145 13.75 18.6843L52 40.7679Z" fill="#43FBFD"/>
</g>
<g id="dark-group">
<path id="dark1" opacity="0.7" d="M70 40.7679C71.3333 41.5377 71.3333 43.4623 70 44.2321L31.75 66.3157C30.4167 67.0855 28.75 66.1232 28.75 64.5836L28.75 20.4164C28.75 18.8768 30.4167 17.9145 31.75 18.6843L70 40.7679Z" fill="black"/>
<path id="dark2" opacity="0.7" d="M52 40.7679C53.3333 41.5377 53.3333 43.4623 52 44.2321L13.75 66.3157C12.4167 67.0855 10.75 66.1232 10.75 64.5836L10.75 20.4164C10.75 18.8768 12.4167 17.9145 13.75 18.6843L52 40.7679Z" fill="black"/>
</g>
</g>
<defs>
<clipPath id="clip0_2_2">
<rect width="133" height="85" fill="white"/>
</clipPath>
</defs>
</svg>
